<?xml version="1.0" encoding="UTF-8"?>
<svg width="250px" height="250px" viewBox="0 0 250 250" version="1.1" xmlns="http://www.w3.org/2000/svg" xmlns:xlink="http://www.w3.org/1999/xlink">
    <!-- Generator: Sketch 52.6 (67491) - http://www.bohemiancoding.com/sketch -->
    <title>icon-how-01</title>
    <desc>Created with Sketch.</desc>
    <defs>
        <rect id="path-1" x="0" y="0" width="190" height="190" rx="18.0952381"></rect>
        <filter x="-24.2%" y="-23.2%" width="148.4%" height="148.4%" filterUnits="objectBoundingBox" id="filter-2">
            <feOffset dx="0" dy="2" in="SourceAlpha" result="shadowOffsetOuter1"></feOffset>
            <feGaussianBlur stdDeviation="15" in="shadowOffsetOuter1" result="shadowBlurOuter1"></feGaussianBlur>
            <feColorMatrix values="0 0 0 0 0   0 0 0 0 0   0 0 0 0 0  0 0 0 0.14 0" type="matrix" in="shadowBlurOuter1"></feColorMatrix>
        </filter>
    </defs>
    <g id="Web" stroke="none" stroke-width="1" fill="none" fill-rule="evenodd">
        <g id="Home" transform="translate(-27.000000, -1740.000000)">
            <g id="CONTENT-[0v]" transform="translate(-9.000000, 0.000000)">
                <g id="how" transform="translate(9.000000, 1644.000000)">
                    <g id="Group-5" transform="translate(47.000000, 124.000000)">
                        <g id="01">
                            <g id="icon-how-01" transform="translate(10.000000, 0.000000)">
                                <g id="icon" fill-rule="nonzero">
                                    <use fill="black" fill-opacity="1" filter="url(#filter-2)" xlink:href="#path-1"></use>
                                    <use fill="#FFFFFF" xlink:href="#path-1"></use>
                                </g>
                                <path d="M60.8,114.934426 L70.3,114.934426 L70.3,118.73146 L60.8,118.73146 L60.8,114.934426 Z M38,149.107728 L38,111.137393 C38.228461,100.974889 46.6387833,92.9106776 56.81,93.1014832 C67.3949,93.1014832 76,101.192962 76,111.137393 L76,120.060422 L83.2808,130.9674 C83.6697912,131.549977 83.7062136,132.299226 83.3755605,132.916731 C83.0449075,133.534236 82.400885,133.919699 81.7,133.919594 L76,133.919594 L76,139.615144 C76,140.663666 75.149341,141.513661 74.1,141.513661 L60.8,141.513661 L60.8,149.107728 C60.8,150.15625 59.949341,151.006245 58.9,151.006245 L39.9,151.006245 C38.850659,151.006245 38,150.15625 38,149.107728 Z M41.8,111.137393 L41.8,147.209212 L57,147.209212 L57,139.615144 C57,138.566623 57.850659,137.716628 58.9,137.716628 L72.2,137.716628 L72.2,132.021077 C72.2,130.972555 73.050659,130.12256 74.1,130.12256 L78.1508,130.12256 L72.5192,121.683653 C72.3116062,121.371346 72.2005936,121.004894 72.2,120.629977 L72.2,111.137393 C72.2,103.419922 65.1491,96.8985168 56.81,96.8985168 C48.7367379,96.7061203 42.0268203,103.071322 41.8,111.137393 Z M68.4,109.238876 C68.4,110.287398 67.549341,111.137393 66.5,111.137393 L47.5,111.137393 C46.450659,111.137393 45.6,110.287398 45.6,109.238876 C45.6,104.004665 50.7129,99.746292 57,99.746292 C63.2871,99.746292 68.4,104.004665 68.4,109.238876 Z M49.8351,107.340359 L64.1649,107.340359 C62.6762713,104.834259 59.9113449,103.368988 57,103.543326 C54.0886551,103.368988 51.3237287,104.834259 49.8351,107.340359 Z M96.9,86.4566745 L96.9,82.6596409 C96.9001302,81.9755233 97.2686003,81.3443811 97.8645157,81.0075489 C98.4604311,80.6707167 99.191623,80.6802914 99.7785,81.032612 L109.2785,86.7281624 C109.849906,87.0714819 110.199399,87.6889607 110.199399,88.3551913 C110.199399,89.0214218 109.849906,89.6389006 109.2785,89.9822201 L99.7785,95.6777705 C99.191623,96.0300911 98.4604311,96.0396658 97.8645157,95.7028336 C97.2686003,95.3660014 96.9001302,94.7348592 96.9,94.0507416 L96.9,90.253708 L81.7,90.253708 L81.7,95.9492584 C81.7,96.9977803 80.849341,97.8477752 79.8,97.8477752 L74.1,97.8477752 L74.1,94.0507416 L77.9,94.0507416 L77.9,88.3551913 C77.9,87.3066694 78.750659,86.4566745 79.8,86.4566745 L96.9,86.4566745 Z M100.7,86.0143201 L100.7,90.6960625 L104.6083,88.3551913 L100.7,86.0143201 Z M100.7,43.7400468 C101.533089,43.7404608 102.268739,44.2831085 102.5145,45.0785012 L104.3442,50.9904824 L110.2,50.9904824 C111.020272,50.9847178 111.751631,51.5056167 112.013749,52.2822958 C112.275868,53.0589748 112.009554,53.9160486 111.3533,54.4078126 L106.5349,58.0871382 L108.3855,64.0731616 C108.630217,64.8625543 108.335789,65.7194493 107.657414,66.1921634 C106.979038,66.6648776 106.072561,66.6448125 105.4158,66.1425449 L100.7,62.535363 L95.9842,66.1235597 C95.3274395,66.6258273 94.4209621,66.6458924 93.7425864,66.1731782 C93.0642108,65.7004641 92.7697828,64.8435692 93.0145,64.0541764 L94.8651,58.0871382 L90.0467,54.4078126 C89.390446,53.9160486 89.1241325,53.0589748 89.3862505,52.2822958 C89.6483686,51.5056167 90.3797282,50.9847178 91.2,50.9904824 L97.0558,50.9904824 L98.8855,45.0785012 C99.1312611,44.2831085 99.8669113,43.7404608 100.7,43.7400468 Z M104.5855,54.787516 L102.9439,54.787516 C102.110811,54.787102 101.375161,54.2444544 101.1294,53.4490617 L100.7,52.0669415 L100.2858,53.4585543 C100.036648,54.2501898 99.3018073,54.7883962 98.4713,54.787516 L96.8297,54.787516 L98.2395,55.863975 C98.8720844,56.3471841 99.1360315,57.1732695 98.9007,57.9333583 L98.4143,59.5110258 L99.5543,58.633911 C100.235215,58.1142283 101.179985,58.1142283 101.8609,58.633911 L103.0009,59.5110258 L102.5145,57.9333583 C102.279169,57.1732695 102.543116,56.3471841 103.1757,55.863975 L104.5855,54.787516 Z M104.0136,74.7769992 L104.0212,74.7807963 C101.840609,75.1606256 99.6106912,75.1606256 97.4301,74.7807963 L98.0837,71.0388197 C99.8294932,71.3406913 101.614207,71.3406913 103.36,71.0388197 L104.0136,74.7769992 Z M112.3109,46.2764653 L115.2141,43.8216831 C116.645745,45.5120202 117.770399,47.4395945 118.5372,49.5172334 L114.9709,50.8329055 C114.358102,49.170166 113.457753,47.6279157 112.3109,46.2764653 Z M82.8267,49.6254489 C83.5789492,47.5419588 84.6922224,45.6069797 86.1156,43.9090148 L89.0321,46.3448119 C87.8934462,47.7020126 87.0026962,49.2488441 86.4006,50.9145418 L82.8267,49.6254489 Z M115.9,56.0804059 L119.32,56.0196534 L119.7,56.0196534 C119.709687,58.2536706 119.323739,60.4717823 118.56,62.5714348 L114.9899,61.2728493 C115.594527,59.6084552 115.902554,57.8510569 115.9,56.0804059 Z M110.1487,39.6031788 L108.2487,42.8971054 C106.713193,42.0144754 105.033779,41.4096899 103.2878,41.1106011 L103.93,37.370523 C106.118508,37.7422411 108.223889,38.4981209 110.1487,39.6031788 Z M91.1563,39.6620328 C93.0674559,38.5472705 95.1603672,37.7779837 97.3389,37.3895082 L98.0077,41.1276877 C96.2632666,41.4370536 94.58712,42.0514608 93.0563,42.9426698 L91.1563,39.6620328 Z M108.3,69.2333302 C109.83206,68.3442672 111.198148,67.1963644 112.3375,65.8406807 L115.2464,68.2802748 C113.824338,69.9759128 112.116482,71.4100084 110.2,72.5177642 L108.3,69.2333302 Z M85.5,56.1145792 C85.5019127,57.882577 85.8131306,59.6366301 86.4196,61.2975301 L82.8533,62.6018111 C82.0908198,60.523792 81.7004278,58.3278645 81.7,56.1145792 L85.5,56.1145792 Z M86.165,68.306854 L89.0701,65.8596659 C90.2114755,67.2167235 91.5817916,68.3636521 93.119,69.2485183 L91.219,72.5367494 C89.3005274,71.4318334 87.5901185,70.0003236 86.165,68.306854 Z M152,131.960325 C152.009687,134.194342 151.623739,136.412454 150.86,138.512106 L147.2899,137.213521 C147.894527,135.549127 148.202554,133.791728 148.2,132.021077 L151.62,131.960325 L152,131.960325 Z M150.8372,125.456006 L147.2709,126.767881 C146.658102,125.105142 145.757753,123.562891 144.6109,122.211441 L147.5141,119.760456 C148.945745,121.450793 150.070399,123.378367 150.8372,125.456006 Z M147.5578,144.220946 C146.132334,145.917615 144.420551,147.351769 142.5,148.458436 L140.6,145.174002 C142.136127,144.286019 143.50614,143.138059 144.6489,141.781352 L147.5578,144.220946 Z M115.1533,138.548178 C114.390161,136.468363 113.999758,134.270449 114,132.055251 L117.8,132.055251 C117.801248,133.825162 118.112476,135.5812 118.7196,137.243897 L115.1533,138.548178 Z M140.5563,118.837777 C139.01846,117.95431 137.336402,117.349499 135.5878,117.051272 L136.23,113.311194 C138.421131,113.682048 140.529156,114.437953 142.4563,115.54385 L140.5563,118.837777 Z M118.7006,126.855213 L115.1267,125.56612 C115.878949,123.48263 116.992222,121.547651 118.4156,119.849686 L121.3321,122.285483 C120.193446,123.642684 119.302696,125.189515 118.7006,126.855213 Z M135.66,146.979491 L136.3212,150.721468 C134.140609,151.101297 131.910691,151.101297 129.7301,150.721468 L130.3837,146.979491 C132.12933,147.283256 133.91437,147.283256 135.66,146.979491 Z M118.465,144.247525 L121.3701,141.800337 C122.511475,143.157395 123.881792,144.304323 125.419,145.18919 L123.519,148.477421 C121.600527,147.372505 119.890118,145.940995 118.465,144.247525 Z M123.4563,115.602704 C125.37037,114.4869 127.466585,113.717581 129.6484,113.33018 L130.3172,117.068359 C128.572767,117.377725 126.89662,117.992132 125.3658,118.883341 L123.4563,115.602704 Z M115.1267,80.0017174 C115.878949,77.9182274 116.992222,75.9832482 118.4156,74.2852834 L121.3321,76.7210804 C120.193446,78.0782811 119.302696,79.6251126 118.7006,81.2908103 L115.1267,80.0017174 Z M140.6,99.6095988 C142.13206,98.7205358 143.498148,97.5726329 144.6375,96.2169493 L147.5464,98.6565433 C146.124338,100.352181 144.416482,101.786277 142.5,102.894033 L140.6,99.6095988 Z M118.465,98.6831226 L121.3701,96.2359344 C122.511475,97.592992 123.881792,98.7399206 125.419,99.6247869 L123.519,102.913018 C121.600527,101.808102 119.890118,100.376592 118.465,98.6831226 Z M144.6109,76.6527338 L147.5141,74.1979516 C148.945745,75.8882888 150.070399,77.815863 150.8372,79.893502 L147.2709,81.2091741 C146.658102,79.5464345 145.757753,78.0041842 144.6109,76.6527338 Z M151.62,86.3940234 L152,86.3959219 C152.009687,88.6299392 151.623739,90.8480509 150.86,92.9477034 L147.2899,91.6491179 C147.894527,89.9847238 148.202554,88.2273255 148.2,86.4566745 L151.62,86.3940234 Z M123.4563,70.0383013 C125.37037,68.9224972 127.466585,68.1531781 129.6484,67.7657767 L130.3172,71.5039563 C128.572767,71.8133221 126.89662,72.4277294 125.3658,73.3189383 L123.4563,70.0383013 Z M117.8,86.4908478 C117.801913,88.2588456 118.113131,90.0128986 118.7196,91.6737986 L115.1533,92.9780796 C114.39082,90.9000605 114.000428,88.7041331 114,86.4908478 L117.8,86.4908478 Z M136.23,67.7467916 C138.418508,68.1185097 140.523889,68.8743894 142.4487,69.9794473 L140.5487,73.2733739 C139.013193,72.3907439 137.333779,71.7859585 135.5878,71.4868696 L136.23,67.7467916 Z M130.3761,101.418885 C132.124588,101.720377 133.911948,101.719093 135.66,101.415088 L136.3136,105.160862 C134.133009,105.540691 131.903091,105.540691 129.7225,105.160862 L130.3761,101.418885 Z M133,122.528493 C138.244101,122.53477 142.493718,126.78107 142.5,132.021077 C142.5,137.263687 138.246705,141.513661 133,141.513661 C127.753295,141.513661 123.5,137.263687 123.5,132.021077 C123.5,126.778468 127.753295,122.528493 133,122.528493 Z M133,137.716628 C136.148023,137.716628 138.7,135.166643 138.7,132.021077 C138.7,128.875512 136.148023,126.325527 133,126.325527 C129.851977,126.325527 127.3,128.875512 127.3,132.021077 C127.3,135.166643 129.851977,137.716628 133,137.716628 Z M123.5,78.8626073 C123.5,77.8140855 124.350659,76.9640906 125.4,76.9640906 L140.6,76.9640906 C141.649341,76.9640906 142.5,77.8140855 142.5,78.8626073 L142.5,94.0507416 C142.5,95.0992635 141.649341,95.9492584 140.6,95.9492584 L125.4,95.9492584 C124.350659,95.9492584 123.5,95.0992635 123.5,94.0507416 L123.5,78.8626073 Z M127.3,80.7611241 L127.3,92.1522248 L138.7,92.1522248 L138.7,80.7611241 L127.3,80.7611241 Z M51.3,56.0804059 C51.3,55.0318841 52.150659,54.1818891 53.2,54.1818891 L64.6,54.1818891 L64.6,50.3848556 C64.6001302,49.700738 64.9686003,49.0695958 65.5645157,48.7327636 C66.1604311,48.3959314 66.891623,48.4055061 67.4785,48.7578267 L76.9785,54.453377 C77.5499057,54.7966966 77.8993988,55.4141753 77.8993988,56.0804059 C77.8993988,56.7466365 77.5499057,57.3641153 76.9785,57.7074348 L67.4785,63.4029852 C66.891623,63.7553058 66.1604311,63.7648805 65.5645157,63.4280483 C64.9686003,63.091216 64.6001302,62.4600739 64.6,61.7759563 L64.6,57.9789227 L55.1,57.9789227 L55.1,88.3551913 L51.3,88.3551913 L51.3,56.0804059 Z M68.4,53.7395347 L68.4,58.4212771 L72.3083,56.0804059 L68.4,53.7395347 Z M89.3,135.818111 C88.250659,135.818111 87.4,134.968116 87.4,133.919594 L87.4,107.340359 L79.8,107.340359 L79.8,103.543326 L89.3,103.543326 C90.349341,103.543326 91.2,104.39332 91.2,105.441842 L91.2,132.021077 L96.9,132.021077 L96.9,128.224044 C96.9001302,127.539926 97.2686003,126.908784 97.8645157,126.571952 C98.4604311,126.235119 99.191623,126.244694 99.7785,126.597015 L109.2785,132.292565 C109.849906,132.635885 110.199399,133.253363 110.199399,133.919594 C110.199399,134.585825 109.849906,135.203303 109.2785,135.546623 L99.7785,141.242173 C99.191623,141.594494 98.4604311,141.604069 97.8645157,141.267236 C97.2686003,140.930404 96.9001302,140.299262 96.9,139.615144 L96.9,135.818111 L89.3,135.818111 Z M100.7,131.578723 L100.7,136.260465 L104.6083,133.919594 L100.7,131.578723 Z" id="Combined-Shape" fill="#DB172B"></path>
                            </g>
                        </g>
                    </g>
                </g>
            </g>
        </g>
    </g>
</svg>