<?xml version="1.0" encoding="UTF-8"?>
<svg width="250px" height="250px" viewBox="0 0 250 250" version="1.1" xmlns="http://www.w3.org/2000/svg" xmlns:xlink="http://www.w3.org/1999/xlink">
    <!-- Generator: Sketch 52.6 (67491) - http://www.bohemiancoding.com/sketch -->
    <title>icon-how-04</title>
    <desc>Created with Sketch.</desc>
    <defs>
        <rect id="path-1" x="0" y="0" width="190" height="190" rx="18.0952381"></rect>
        <filter x="-24.2%" y="-23.2%" width="148.4%" height="148.4%" filterUnits="objectBoundingBox" id="filter-2">
            <feOffset dx="0" dy="2" in="SourceAlpha" result="shadowOffsetOuter1"></feOffset>
            <feGaussianBlur stdDeviation="15" in="shadowOffsetOuter1" result="shadowBlurOuter1"></feGaussianBlur>
            <feColorMatrix values="0 0 0 0 0   0 0 0 0 0   0 0 0 0 0  0 0 0 0.14 0" type="matrix" in="shadowBlurOuter1"></feColorMatrix>
        </filter>
    </defs>
    <g id="Web" stroke="none" stroke-width="1" fill="none" fill-rule="evenodd">
        <g id="Home" transform="translate(-747.000000, -1740.000000)" fill-rule="nonzero">
            <g id="CONTENT-[0v]" transform="translate(-9.000000, 0.000000)">
                <g id="how" transform="translate(9.000000, 1644.000000)">
                    <g id="Group-5" transform="translate(47.000000, 124.000000)">
                        <g id="04" transform="translate(720.000000, 0.000000)">
                            <g id="icon-how-04" transform="translate(10.000000, 0.000000)">
                                <g id="icon">
                                    <use fill="black" fill-opacity="1" filter="url(#filter-2)" xlink:href="#path-1"></use>
                                    <use fill="#FFFFFF" xlink:href="#path-1"></use>
                                </g>
                                <path d="M93.4099593,124.326596 C94.803339,123.867545 96.3142682,123.91393 97.676762,124.457583 L81.071632,92.2776709 C79.4523334,89.1388794 80.6884127,85.2838931 83.8324923,83.6673181 C86.9765719,82.0507431 90.8380528,83.2847433 92.4573514,86.4235348 L100.564566,102.135131 C101.073625,101.570272 101.681562,101.102785 102.358566,100.755594 C105.144562,99.3344982 108.550808,100.122125 110.427257,102.62132 C110.952717,101.772054 111.702802,101.08407 112.594873,100.633165 C114.996639,99.4009881 117.914248,99.8028561 119.892063,101.638271 C121.55387,99.5452866 124.359903,98.7305842 126.886869,99.6074009 C128.454109,100.152282 129.722869,101.32475 130.387864,102.842692 L140.926511,123.258118 C143.480601,128.237158 141.523859,134.340674 136.548551,136.913959 L119.934791,145.456682 C117.816915,146.542056 115.383475,146.847048 113.062576,146.318002 C112.929518,146.287611 112.800346,146.242239 112.67754,146.182758 C112.590624,146.165672 112.475041,146.137201 112.405166,146.115129 C112.057929,146.013854 111.723107,145.874183 111.406924,145.698712 L92.4416532,135.983596 C90.9478753,135.209362 89.8211926,133.877064 89.3071622,132.277073 C88.778784,130.677915 88.9223395,128.93323 89.7050338,127.441586 C90.4804555,125.956322 91.8119833,124.836814 93.4099593,124.326596 Z M96.5815418,127.962647 C95.9508295,127.629074 95.2107441,127.568098 94.5337867,127.793931 C93.8469598,128.012966 93.2741773,128.493235 92.9394381,129.130768 C92.6141724,129.756068 92.5570476,130.486383 92.7811423,131.154509 C92.9998369,131.840921 93.4810641,132.413425 94.1202315,132.74759 L113.155392,142.497607 C113.186759,142.513265 113.216705,142.529636 113.24523,142.546722 C113.300852,142.570222 113.365017,142.592994 113.416361,142.610794 C113.639476,142.654333 113.857764,142.719662 114.068076,142.805838 C115.493138,143.086471 116.971364,142.878799 118.263499,142.216434 L134.877143,133.673696 C138.060363,132.022336 139.312405,128.116122 137.68079,124.926671 L127.095121,104.412302 C126.836397,103.774303 126.317782,103.276473 125.669057,103.043393 C124.995658,102.808883 124.255138,102.86246 123.622645,103.191451 C122.764268,103.639395 122.213535,104.513594 122.180898,105.479993 C122.118363,106.333521 121.508986,107.048165 120.67497,107.246061 C119.835186,107.419434 118.982606,107.01278 118.590065,106.251627 L117.973996,105.056462 C117.276366,103.7088 115.61747,103.179485 114.266223,103.873398 C113.869812,104.07697 112.942832,104.553188 113.138205,107.118646 C113.218874,108.084112 112.599306,108.970025 111.663644,109.227102 C110.732265,109.485667 109.74649,109.059752 109.297793,108.20491 L107.737674,105.18032 C107.034537,103.839249 105.382284,103.311417 104.029901,103.995827 C103.421762,104.304561 102.959341,104.839305 102.742155,105.484979 C102.43119,106.387899 101.609829,107.017904 100.655805,107.085262 C99.6962058,107.15128 98.7886009,106.643458 98.34416,105.791854 L89.2116152,88.0920882 C88.5153817,86.7428483 86.8553552,86.2125328 85.5038422,86.9075953 C84.1523292,87.6026578 83.6211201,89.2598922 84.3173536,90.6091321 L101.990615,124.859042 C102.563196,125.969107 102.353652,127.321109 101.471797,128.206511 C100.589942,129.091913 99.2368785,129.308806 98.1216988,128.743523 L96.5815418,127.962647 Z M101.424459,90.4646167 C101.010398,90.2139973 100.713117,89.8093336 100.598099,89.3397636 C100.483082,88.8701937 100.559763,88.3742384 100.811253,87.9611452 C105.69365,80.0221355 106.052435,70.1097116 101.756735,61.8396127 C94.9100944,48.6550961 78.6669053,43.4887993 65.4423498,50.2894861 C52.2177942,57.0901729 47.0004126,73.2925018 53.7780144,86.5125213 C58.1032141,94.9007586 66.5536262,100.376013 75.9890801,100.903681 C76.9716195,100.967762 77.7262172,101.798193 77.6946628,102.780665 C77.6631084,103.763138 76.856773,104.543605 75.8721398,104.544718 C75.8322592,104.544718 75.7923201,104.543289 75.7523957,104.54116 C60.9504291,103.606855 48.9445754,92.2215745 47.2499314,77.5119659 C45.5552874,62.8023573 54.6585912,48.993336 68.8616051,44.7286965 C83.0646189,40.4640571 98.2879324,46.9686955 105.002471,60.1710156 C109.88528,69.5676981 109.478862,80.8315462 103.931492,89.8531559 C103.40813,90.7128688 102.285943,90.9865682 101.424459,90.4646167 Z M89.6636491,73.2695399 C89.6628761,67.0780756 85.0937791,61.8330768 78.9519723,60.9732958 C72.8101656,60.1135149 66.9722704,63.9016568 65.2657567,69.8541209 C63.5592431,75.8065851 66.5055342,82.1046036 72.1729678,84.6190382 C72.7688107,84.8840339 73.1777804,85.4462437 73.2458221,86.0938887 C73.3138639,86.7415337 73.0306404,87.3762211 72.5028393,87.7588704 C71.9750383,88.1415196 71.2828451,88.2139972 70.6870023,87.9490014 C63.3592289,84.6946129 59.5515811,76.5492805 61.7598926,68.8521002 C63.9682042,61.1549199 71.51793,56.2570526 79.4603819,57.3689483 C87.4028338,58.4808439 93.311931,65.2628659 93.3143831,73.2695399 C93.3143831,74.2759666 92.4971385,75.0918367 91.4890161,75.0918367 C90.4808937,75.0918367 89.6636491,74.2759666 89.6636491,73.2695399 Z" id="pick" fill="#E2192D"></path>
                            </g>
                        </g>
                    </g>
                </g>
            </g>
        </g>
    </g>
</svg>