<?xml version="1.0" encoding="UTF-8"?>
<svg width="250px" height="250px" viewBox="0 0 250 250" version="1.1" xmlns="http://www.w3.org/2000/svg" xmlns:xlink="http://www.w3.org/1999/xlink">
    <!-- Generator: Sketch 52.6 (67491) - http://www.bohemiancoding.com/sketch -->
    <title>icon-how-03</title>
    <desc>Created with Sketch.</desc>
    <defs>
        <rect id="path-1" x="0" y="0" width="190" height="190" rx="18.0952381"></rect>
        <filter x="-24.2%" y="-23.2%" width="148.4%" height="148.4%" filterUnits="objectBoundingBox" id="filter-2">
            <feOffset dx="0" dy="2" in="SourceAlpha" result="shadowOffsetOuter1"></feOffset>
            <feGaussianBlur stdDeviation="15" in="shadowOffsetOuter1" result="shadowBlurOuter1"></feGaussianBlur>
            <feColorMatrix values="0 0 0 0 0   0 0 0 0 0   0 0 0 0 0  0 0 0 0.14 0" type="matrix" in="shadowBlurOuter1"></feColorMatrix>
        </filter>
    </defs>
    <g id="Web" stroke="none" stroke-width="1" fill="none" fill-rule="evenodd">
        <g id="Home" transform="translate(-507.000000, -1740.000000)" fill-rule="nonzero">
            <g id="CONTENT-[0v]" transform="translate(-9.000000, 0.000000)">
                <g id="how" transform="translate(9.000000, 1644.000000)">
                    <g id="Group-5" transform="translate(47.000000, 124.000000)">
                        <g id="03" transform="translate(480.000000, 0.000000)">
                            <g id="icon-how-03" transform="translate(10.000000, 0.000000)">
                                <g id="icon">
                                    <use fill="black" fill-opacity="1" filter="url(#filter-2)" xlink:href="#path-1"></use>
                                    <use fill="#FFFFFF" xlink:href="#path-1"></use>
                                </g>
                                <g id="noun_balance_1912368" transform="translate(28.952381, 62.428571)" fill="#E2192D">
                                    <path d="M60.3132461,41.7299539 C62.1760019,43.2867221 64.5737172,44.2249287 67.1863711,44.2249287 C69.799025,44.2249287 72.1967403,43.2867221 74.0594961,41.7299539 L79.6092009,41.7299539 L89.7321924,76.0801794 C89.9152743,76.702749 89.7939054,77.3725763 89.4051134,77.890357 C89.0163214,78.4101923 88.4053626,78.7142857 87.7573759,78.7142857 L77.4718735,78.7142857 C76.5441212,78.7142857 75.7315665,78.0937708 75.4888286,77.1999828 L69.7310044,56.1127496 L64.6437949,56.1127496 L58.8859707,77.1999828 C58.6411757,78.0937708 57.828621,78.7142857 56.9008687,78.7142857 L46.6153663,78.7142857 C45.9673796,78.7142857 45.3564208,78.4101923 44.9696859,77.890357 C44.5808939,77.3725763 44.459525,76.702749 44.6426069,76.0801794 L54.7635413,41.7299539 L60.3132461,41.7299539 Z M49.3657096,74.6049155 L55.331301,74.6049155 L56.4524208,70.4955453 L50.7295672,70.4955453 C50.6781397,70.4955453 50.6349406,70.4708891 50.5855702,70.4667797 L49.3657096,74.6049155 Z M71.3005721,52.0033794 C72.2283244,52.0033794 73.0408791,52.6238943 73.285674,53.5176823 L76.7992017,66.3861751 L82.5858253,66.3861751 L76.1985283,44.711302 C73.7300077,46.6981825 70.5970437,47.8940092 67.1863711,47.8940092 C63.7756985,47.8940092 60.6427345,46.6981825 58.1721568,44.711302 L51.7869169,66.3861751 L57.5735405,66.3861751 L61.0870682,53.5176823 C61.3318631,52.6238943 62.1444178,52.0033794 63.0721701,52.0033794 L71.3005721,52.0033794 Z M79.0434983,74.6049155 L85.0070326,74.6049155 L83.787172,70.4667797 C83.7378016,70.4708891 83.6946025,70.4955453 83.643175,70.4955453 L77.9223785,70.4955453 L79.0434983,74.6049155 Z" id="pies"></path>
                                    <path d="M72.920744,41.7299539 C75.2743574,39.7629595 76.7739287,36.8084556 76.7739287,33.5112135 C76.7739287,27.6043852 71.9613911,22.7974984 66.047619,22.7974984 C60.133847,22.7974984 55.3213094,27.6043852 55.3213094,33.5112135 C55.3213094,36.8084556 56.8208807,39.7629595 59.174494,41.7299539 L8.44880555,41.7299539 C5.04636135,41.7299539 2.27750411,38.9643478 2.27750411,35.5658986 L2.27750411,31.4565284 C2.27750411,28.0580793 5.04636135,25.2924731 8.44880555,25.2924731 L12.7913447,25.2924731 C10.1150569,22.6789137 8.44880555,19.042121 8.44880555,15.0190476 L8.44880555,10.9096774 C8.44880555,9.77343656 9.37038657,8.85499232 10.505906,8.85499232 L47.5337147,8.85499232 C48.6692342,8.85499232 49.5908152,9.77343656 49.5908152,10.9096774 L49.5908152,15.0190476 C49.5908152,19.042121 47.9245638,22.6789137 45.2523903,25.2924731 L54.2501478,25.2924731 C56.854437,21.5714384 61.1702338,19.1284178 66.0496761,19.1284178 C70.9291185,19.1284178 75.2428582,21.5714384 77.8492045,25.2924731 L86.846962,25.2924731 C84.1706743,22.6789137 82.5044229,19.042121 82.5044229,15.0190476 L82.5044229,10.9096774 C82.5044229,9.77343656 83.4260039,8.85499232 84.5615234,8.85499232 L121.589332,8.85499232 C122.724852,8.85499232 123.646433,9.77343656 123.646433,10.9096774 L123.646433,15.0190476 C123.646433,19.042121 121.980181,22.6789137 119.303893,25.2924731 L123.646433,25.2924731 C127.048877,25.2924731 129.817734,28.0580793 129.817734,31.4565284 L129.817734,35.5658986 C129.817734,38.9643478 127.048877,41.7299539 123.646433,41.7299539 L72.920744,41.7299539 Z M88.729209,21.1831029 C90.6073417,23.6631078 93.5572238,25.2924731 96.9041263,25.2924731 L109.246729,25.2924731 C114.918155,25.2924731 119.532232,20.6838144 119.532232,15.0190476 L119.532232,12.9643625 L86.6186239,12.9643625 L86.6186239,15.0190476 C86.6186239,15.7217499 86.6906224,16.4100694 86.826391,17.0737327 L113.36093,17.0737327 C114.49645,17.0737327 115.418031,17.992177 115.418031,19.1284178 C115.418031,20.2646587 114.49645,21.1831029 113.36093,21.1831029 L88.729209,21.1831029 Z M14.6735916,21.1831029 C16.5517243,23.6631078 19.5016064,25.2924731 22.8485089,25.2924731 L35.1911118,25.2924731 C40.8625378,25.2924731 45.4766142,20.6838144 45.4766142,15.0190476 L45.4766142,12.9643625 L12.5630065,12.9643625 L12.5630065,15.0190476 C12.5630065,15.7217499 12.635005,16.4100694 12.7707737,17.0737327 L39.3053128,17.0737327 C40.4408322,17.0737327 41.3624133,17.992177 41.3624133,19.1284178 C41.3624133,20.2646587 40.4408322,21.1831029 39.3053128,21.1831029 L14.6735916,21.1831029 Z M6.39170507,35.5658986 C6.39170507,36.7000848 7.31534319,37.6205837 8.44880555,37.6205837 L52.2547603,37.6205837 C51.8639112,36.3179134 51.6479157,34.9392197 51.6479157,33.5112135 C51.6479157,32.0832074 51.8639112,30.7045137 52.2547603,29.4018433 L35.1911118,29.4018433 L22.8485089,29.4018433 L8.44880555,29.4018433 C7.31534319,29.4018433 6.39170507,30.3223422 6.39170507,31.4565284 L6.39170507,35.5658986 Z M125.703533,35.5658986 L125.703533,31.4565284 C125.703533,30.3223422 124.779895,29.4018433 123.646433,29.4018433 L109.246729,29.4018433 L96.9041263,29.4018433 L79.8404778,29.4018433 C80.2313269,30.7045137 80.4473224,32.0832074 80.4473224,33.5112135 C80.4473224,34.9392197 80.2313269,36.3179134 79.8404778,37.6205837 L123.646433,37.6205837 C124.779895,37.6205837 125.703533,36.7000848 125.703533,35.5658986 Z" id="Shape" transform="translate(66.047619, 25.292473) rotate(-8.000000) translate(-66.047619, -25.292473) "></path>
                                    <path d="M67.1863711,39.6752688 C63.7839269,39.6752688 61.0150697,36.9096627 61.0150697,33.5112135 C61.0150697,30.1127644 63.7839269,27.3471582 67.1863711,27.3471582 C70.5888153,27.3471582 73.3576725,30.1127644 73.3576725,33.5112135 C73.3576725,36.9096627 70.5888153,39.6752688 67.1863711,39.6752688 Z M67.1863711,31.4565284 C66.0529087,31.4565284 65.1292706,32.3770273 65.1292706,33.5112135 C65.1292706,34.6453997 66.0529087,35.5658986 67.1863711,35.5658986 C68.3198335,35.5658986 69.2434716,34.6453997 69.2434716,33.5112135 C69.2434716,32.3770273 68.3198335,31.4565284 67.1863711,31.4565284 Z" id="Combined-Shape"></path>
                                </g>
                            </g>
                        </g>
                    </g>
                </g>
            </g>
        </g>
    </g>
</svg>